<?xml version="1.0" encoding="iso-8859-1"?>
<!-- Generator: Adobe Illustrator 19.0.0, SVG Export Plug-In . SVG Version: 6.00 Build 0)  -->
<svg version="1.1" id="Capa_1" xmlns="http://www.w3.org/2000/svg" xmlns:xlink="http://www.w3.org/1999/xlink" x="0px" y="0px"
	 viewBox="0 0 512 512" style="enable-background:new 0 0 512 512;" xml:space="preserve">
<polygon style="fill:#A0E557;" points="188.251,352.171 10,352.171 10,106.044 502,106.044 502,352.171 342,352.171 "/>
<polygon style="fill:#FF5D5D;" points="256,295.109 177.255,431.501 231.204,410.339 231.204,475.107 280.796,475.107 
	280.796,410.339 334.745,431.501 "/>
<path d="M342,342.17c-2.63,0-5.21,1.07-7.07,2.93c-1.86,1.86-2.93,4.44-2.93,7.07s1.069,5.21,2.93,7.07s4.44,2.93,7.07,2.93
	s5.21-1.07,7.069-2.93c1.86-1.86,2.931-4.44,2.931-7.07s-1.07-5.21-2.931-7.07C347.21,343.24,344.63,342.17,342,342.17z"/>
<path d="M502,96.044H10c-5.522,0-10,4.477-10,10v246.127c0,5.523,4.478,10,10,10h167.255c5.522,0,10-4.477,10-10s-4.478-10-10-10H20
	V156h159.75c5.522,0,10-4.477,10-10s-4.478-10-10-10H20v-19.956h472v226.127H385.5c-5.522,0-10,4.477-10,10s4.478,10,10,10H502
	c5.522,0,10-4.477,10-10V106.044C512,100.521,507.522,96.044,502,96.044z"/>
<path d="M90.634,210.847c0-15.583-12.678-28.261-28.26-28.261H39.125c-5.522,0-10,4.477-10,10v73.043c0,5.523,4.478,10,10,10
	s10-4.477,10-10v-26.521h13.249C77.956,239.107,90.634,226.43,90.634,210.847z M62.374,219.107H49.125v-16.521h13.249
	c4.555,0,8.26,3.706,8.26,8.261S66.929,219.107,62.374,219.107z"/>
<path d="M175.43,275.319c5.522,0,10-4.477,10-10V228.63l22.772-29.998c3.34-4.399,2.48-10.672-1.918-14.011
	c-4.402-3.341-10.673-2.48-14.012,1.918l-16.843,22.187l-16.843-22.187c-3.339-4.399-9.612-5.258-14.012-1.918
	c-4.398,3.339-5.258,9.612-1.918,14.011l22.772,29.998v36.689C165.43,270.842,169.907,275.319,175.43,275.319z"/>
<path d="M448.067,275.319c5.522,0,10-4.477,10-10v-62.733h14.808c5.522,0,10-4.477,10-10s-4.478-10-10-10H423.26
	c-5.522,0-10,4.477-10,10s4.478,10,10,10h14.808v62.733C438.067,270.842,442.545,275.319,448.067,275.319z"/>
<path d="M275.112,275.629c5.522,0,10-4.477,10-10v-73.043c0-4.044-2.437-7.691-6.173-9.239c-3.737-1.549-8.038-0.691-10.898,2.167
	l-16.845,16.845l-16.845-16.845c-2.86-2.86-7.161-3.715-10.898-2.167c-3.736,1.548-6.173,5.194-6.173,9.239v73.043
	c0,5.523,4.478,10,10,10s10-4.477,10-10v-48.901l6.845,6.845c3.906,3.905,10.236,3.905,14.143,0l6.845-6.845v48.901
	C265.112,271.152,269.59,275.629,275.112,275.629z"/>
<path d="M399.126,275.63c0.851,0,1.713-0.109,2.564-0.335c4.384-1.163,7.437-5.13,7.437-9.666v-73.043c0-5.523-4.478-10-10-10
	s-10,4.477-10,10v35.342l-22.996-40.298c-2.249-3.94-6.869-5.875-11.249-4.709c-4.384,1.163-7.437,5.13-7.437,9.666v73.043
	c0,5.523,4.478,10,10,10s10-4.477,10-10v-35.342l22.996,40.298C392.253,273.759,395.601,275.63,399.126,275.63z"/>
<path d="M333.532,202.586c5.522,0,10-4.477,10-10s-4.478-10-10-10h-29.979c-5.522,0-10,4.477-10,10v73.043c0,5.523,4.478,10,10,10
	h29.979c5.522,0,10-4.477,10-10s-4.478-10-10-10h-19.979v-16.521h7.68c5.522,0,10-4.477,10-10s-4.478-10-10-10h-7.68v-16.521h19.979
	V202.586z"/>
<path d="M256,81.689c5.522,0,10-4.477,10-10V36.893c0-5.523-4.478-10-10-10s-10,4.477-10,10V71.69
	C246,77.212,250.478,81.689,256,81.689z"/>
<path d="M199.377,77.262c1.596,3.851,5.319,6.176,9.243,6.176c1.275,0,2.571-0.245,3.823-0.764
	c5.102-2.113,7.525-7.963,5.412-13.065l-10.377-25.053c-2.114-5.103-7.962-7.527-13.066-5.412
	c-5.102,2.113-7.525,7.963-5.412,13.065L199.377,77.262z"/>
<path d="M298.996,84.027c1.252,0.519,2.548,0.764,3.823,0.764c3.924,0,7.647-2.325,9.243-6.176L323,52.208
	c2.113-5.103-0.311-10.952-5.412-13.065c-5.103-2.114-10.951,0.31-13.066,5.412l-10.938,26.407
	C291.471,76.064,293.895,81.914,298.996,84.027z"/>
<path d="M264.66,290.109c-1.786-3.094-5.088-5-8.66-5s-6.874,1.906-8.66,5L168.595,426.5c-2.125,3.68-1.691,8.301,1.08,11.522
	c2.771,3.22,7.272,4.34,11.231,2.788l40.298-15.807v50.104c0,5.523,4.478,10,10,10h49.592c5.522,0,10-4.477,10-10v-50.104
	l40.298,15.807c3.956,1.552,8.46,0.434,11.231-2.788c2.771-3.221,3.205-7.842,1.08-11.522L264.66,290.109z M284.447,401.03
	c-3.077-1.208-6.554-0.815-9.285,1.048c-2.731,1.863-4.366,4.955-4.366,8.262v54.768h-29.592V410.34
	c0-3.307-1.635-6.399-4.366-8.262s-6.206-2.255-9.285-1.048L200.2,411.759l55.8-96.649l55.8,96.649L284.447,401.03z"/>
<path d="M222.25,135.99c-2.63,0-5.21,1.07-7.07,2.93s-2.93,4.44-2.93,7.07c0,2.64,1.069,5.21,2.93,7.07
	c1.86,1.87,4.44,2.93,7.07,2.93s5.21-1.06,7.069-2.93c1.86-1.86,2.931-4.44,2.931-7.07s-1.07-5.21-2.931-7.07
	C227.46,137.06,224.88,135.99,222.25,135.99z"/>
<path d="M148.687,262.252l-24.808-72.888c-1.38-4.053-5.186-6.778-9.467-6.778s-8.087,2.726-9.467,6.778l-24.809,72.888
	c-1.779,5.229,1.017,10.909,6.245,12.689c1.067,0.363,2.154,0.536,3.223,0.536c4.163,0,8.05-2.621,9.466-6.781l2.634-7.738h25.415
	l2.634,7.738c1.779,5.229,7.462,8.025,12.688,6.245C147.67,273.161,150.466,267.48,148.687,262.252z M108.511,240.958l5.901-17.336
	l5.9,17.336H108.511z"/>
<g>
</g>
<g>
</g>
<g>
</g>
<g>
</g>
<g>
</g>
<g>
</g>
<g>
</g>
<g>
</g>
<g>
</g>
<g>
</g>
<g>
</g>
<g>
</g>
<g>
</g>
<g>
</g>
<g>
</g>
</svg>
