<svg width="376" height="682" viewBox="0 0 376 682" fill="none" xmlns="http://www.w3.org/2000/svg">
<path d="M376 441.754C376 366.439 334.97 320.404 233.277 285.235C160.662 258.455 130.748 240.882 130.748 213.261C130.748 189.823 148.687 166.363 204.222 166.363C237.245 166.363 263.841 171.887 284.889 178.457C296.098 181.935 308.305 180.753 318.609 175.138C328.89 169.545 336.409 160.065 339.333 148.903L339.797 147.153C343.417 133.331 341.236 118.668 333.74 106.437C326.244 94.2069 314.061 85.4319 299.904 82.0673C280.805 77.5207 258.41 74.2471 232.07 72.8603V22.7333C232.07 10.1845 221.697 0 208.863 0H162.449C149.639 0 139.242 10.1845 139.242 22.7333V79.8167C51.1018 98.5945 0 155.269 0 227.47C0 308.673 62.3804 350.503 153.816 380.647C217.055 401.584 244.37 421.681 244.37 453.462C244.37 486.971 211.045 505.362 162.356 505.362C127.453 505.362 94.5918 498.406 66.0936 488.494C54.142 484.334 40.9836 485.266 29.7978 491.108C18.612 496.928 10.4432 507.09 7.287 519.116L7.07814 519.843C-0.487347 548.828 16.6858 578.518 45.9499 587.088C73.6823 595.227 106.149 600.91 139.242 602.411V659.267C139.242 671.838 149.639 682 162.449 682H208.863C221.697 682 232.07 671.838 232.07 659.267V594.636C324.898 575.744 376 514.046 376 441.754Z" fill="white"/>
</svg>
