<?xml version="1.0" encoding="iso-8859-1"?>
<!-- Generator: Adobe Illustrator 19.0.0, SVG Export Plug-In . SVG Version: 6.00 Build 0)  -->
<svg version="1.1" id="Capa_1" xmlns="http://www.w3.org/2000/svg" xmlns:xlink="http://www.w3.org/1999/xlink" x="0px" y="0px"
	 viewBox="0 0 512 512" style="enable-background:new 0 0 512 512;" xml:space="preserve">
<path style="fill:#EDF2FA;" d="M251.656,62.676L65.781,169.991h387.213L366.67,20.474c-5.787-10.024-18.605-13.459-28.631-7.671
	l-13.867,8.006L251.656,62.676z"/>
<polygon style="fill:#686C83;" points="386.207,54.312 185.844,169.991 305.966,169.991 416.237,106.326 "/>
<path style="fill:#4DBAF6;" d="M49.994,502h412.011c11.046,0,20.001-8.954,20.001-20.001V189.991
	c0-11.046-8.954-20.001-20.001-20.001H49.994c-11.046,0-20.001,8.954-20.001,20.001v292.008C29.994,493.046,38.948,502,49.994,502z"
	/>
<path style="fill:#41489D;" d="M482.006,238.993v25.001c0,11.046-8.954,20.001-20.001,20.001H264.943
	c-15.985,0-28.944,12.958-28.944,28.944v46.115c0,15.985,12.958,28.944,28.944,28.944h197.062c11.046,0,20.001-8.954,20.001-20.001
	v-18V238.993z"/>
<circle style="fill:#FFFFFF;" cx="287.618" cy="336.059" r="20.001"/>
<path d="M287.615,306.057c-16.542,0-30.001,13.458-30.001,30.001c0,16.542,13.458,30.001,30.001,30.001
	c16.542,0,30.001-13.458,30.001-30.001C317.616,319.516,304.157,306.057,287.615,306.057z M287.615,346.059c-5.514,0-10-4.486-10-10
	s4.486-10,10-10s10,4.486,10,10S293.129,346.059,287.615,346.059z"/>
<path d="M286.763,52.411c1.7,0,3.423-0.434,5-1.347l0.143-0.083c4.78-2.766,6.412-8.884,3.646-13.664
	c-2.766-4.78-8.883-6.412-13.664-3.646l-0.143,0.083c-4.78,2.766-6.412,8.884-3.646,13.664
	C279.953,50.622,283.311,52.411,286.763,52.411z"/>
<path d="M462.006,159.99h-3.238L375.33,15.473c-8.535-14.782-27.506-19.868-42.291-11.332l-13.867,8.006
	c-4.783,2.761-6.422,8.877-3.66,13.66c2.761,4.783,8.876,6.421,13.66,3.66l13.867-8.006c5.233-3.023,11.949-1.222,14.97,4.011
	l14.536,25.178L183.164,159.99h-80.062l153.553-88.654c4.783-2.761,6.422-8.877,3.66-13.66c-2.762-4.783-8.877-6.422-13.66-3.66
	L63.102,159.99H49.994c-16.542,0-30.001,13.458-30.001,30.001v292.008c0,16.542,13.458,30.001,30.001,30.001h412.011
	c16.542,0,30.001-13.458,30.001-30.001V189.991C492.007,173.449,478.548,159.99,462.006,159.99z M472.006,349.996v18
	c0,5.514-4.486,10-10,10H264.943c-10.445,0-18.944-8.498-18.944-18.944v-46.115c0-10.445,8.498-18.944,18.944-18.944h197.062
	c3.506,0,6.87-0.61,10-1.72V349.996z M435.673,159.99h-92.385l69.289-40.004L435.673,159.99z M382.546,67.972l20.031,34.694
	l-99.29,57.325h-80.122L382.546,67.972z M462.006,492H49.994c-5.514,0-10-4.486-10-10v-13.997h161.004c5.523,0,10-4.477,10-10
	s-4.477-10-10-10H39.994v-258.01c0-5.514,4.486-10,10-10h412.011c5.514,0,10,4.486,10,10v13.997H359.003c-5.523,0-10,4.477-10,10
	s4.477,10,10,10h113.003v40.004c0,5.514-4.486,10-10,10H264.943c-21.474,0-38.944,17.47-38.944,38.944v46.115
	c0,21.474,17.47,38.944,38.944,38.944h197.062c3.506,0,6.87-0.61,10-1.72v85.722C472.006,487.513,467.52,492,462.006,492z"/>
<path d="M116.662,280.088c14.336,0,26.001,10.17,26.001,22.673c0,5.523,4.477,10,10,10s10-4.477,10-10
	c0-20.344-15.43-37.397-36.001-41.645v-4.618c0-5.523-4.477-10-10-10c-5.523,0-10,4.477-10,10v4.618
	c-20.571,4.248-36.001,21.302-36.001,41.645c0,23.53,20.637,42.673,46.001,42.673c14.336,0,26.001,10.17,26.001,22.673
	c0,12.502-11.664,22.673-26.001,22.673s-26.001-10.17-26.001-22.673c0-5.523-4.477-10-10-10s-10,4.477-10,10
	c0,20.344,15.43,37.397,36.001,41.645v5.869c0,5.523,4.477,10,10,10c5.523,0,10-4.477,10-10v-5.869
	c20.571-4.248,36.001-21.302,36.001-41.645c0-23.53-20.637-42.673-46.001-42.673c-14.336,0-26.001-10.17-26.001-22.673
	C90.661,290.258,102.326,280.088,116.662,280.088z"/>
<path d="M243.5,447.998c-2.63,0-5.21,1.06-7.07,2.93c-1.86,1.86-2.93,4.43-2.93,7.07c0,2.63,1.07,5.21,2.93,7.07
	c1.86,1.86,4.44,2.93,7.07,2.93c2.63,0,5.21-1.07,7.07-2.93c1.86-1.86,2.93-4.44,2.93-7.07c0-2.64-1.07-5.21-2.93-7.07
	C248.71,449.058,246.13,447.998,243.5,447.998z"/>
<g>
</g>
<g>
</g>
<g>
</g>
<g>
</g>
<g>
</g>
<g>
</g>
<g>
</g>
<g>
</g>
<g>
</g>
<g>
</g>
<g>
</g>
<g>
</g>
<g>
</g>
<g>
</g>
<g>
</g>
</svg>
